<?xml version="1.0" standalone="no"?>
<!DOCTYPE svg PUBLIC "-//W3C//DTD SVG 20010904//EN"
 "http://www.w3.org/TR/2001/REC-SVG-20010904/DTD/svg10.dtd">
<svg version="1.0" xmlns="http://www.w3.org/2000/svg"
 width="640.000000pt" height="640.000000pt" viewBox="0 0 640.000000 640.000000"
 preserveAspectRatio="xMidYMid meet">
<metadata>
Created by potrace 1.11, written by Peter Selinger 2001-2013
</metadata>
<g transform="translate(0.000000,640.000000) scale(0.100000,-0.100000)"
fill="#000000" stroke="none">
<path d="M3302 5925 c-13 -7 -246 -233 -518 -501 -272 -269 -530 -522 -572
-563 -42 -41 -345 -338 -672 -661 -327 -323 -671 -661 -763 -751 -93 -90 -178
-181 -188 -201 -17 -34 -18 -41 -5 -70 7 -18 105 -122 217 -233 266 -261 1461
-1438 1839 -1811 482 -476 630 -618 664 -638 59 -35 39 -52 541 443 132 130
474 466 760 746 286 281 628 617 760 747 l240 238 -281 0 -281 0 -39 -26 c-21
-15 -58 -45 -80 -68 -80 -79 -667 -651 -688 -669 -19 -17 -117 -112 -571 -557
-248 -243 -257 -250 -313 -250 -26 1 -57 6 -69 13 -12 7 -138 127 -280 267
-142 140 -499 491 -793 780 -1104 1084 -1025 1003 -1025 1050 0 41 4 45 210
248 196 192 337 331 1085 1066 157 155 398 392 535 527 138 135 260 251 272
257 23 13 88 15 114 4 21 -9 197 -176 729 -696 96 -93 249 -242 340 -331 91
-88 247 -240 346 -337 100 -98 194 -182 209 -188 15 -6 139 -10 303 -10 l277
1 -215 210 c-118 116 -323 317 -455 448 -391 385 -1270 1248 -1408 1382 -162
156 -173 163 -225 134z"/>
<path d="M3291 5066 c-23 -20 -176 -167 -339 -328 -350 -345 -698 -687 -871
-855 -75 -72 -121 -125 -117 -132 5 -8 86 -11 279 -11 l272 0 175 171 c96 94
281 277 411 406 176 174 242 234 257 231 21 -3 129 -107 895 -861 385 -378
467 -464 463 -482 -5 -20 -174 -190 -826 -832 -503 -495 -513 -504 -537 -501
-13 2 -120 99 -265 242 -134 132 -317 313 -408 402 l-165 163 -272 1 c-198 0
-273 -3 -279 -11 -4 -8 60 -78 172 -188 307 -301 731 -717 956 -938 129 -127
226 -215 242 -219 26 -6 63 10 97 45 9 9 175 171 370 361 194 190 453 442 574
561 308 302 589 576 660 644 191 182 255 249 255 264 0 15 -139 158 -395 406
-49 48 -178 174 -285 279 -345 337 -1001 979 -1123 1097 -65 63 -126 115 -136
117 -10 2 -37 -13 -60 -32z"/>
<path d="M3207 4213 c-388 -378 -549 -535 -730 -713 -109 -107 -204 -198 -212
-203 -26 -14 -57 -77 -51 -102 6 -22 179 -197 721 -726 105 -103 206 -201 226
-220 20 -19 70 -67 112 -106 41 -40 81 -73 88 -73 8 0 151 135 319 300 l305
299 -175 2 c-96 1 -181 1 -188 0 -8 -1 -59 -46 -114 -99 -119 -116 -122 -118
-151 -99 -12 8 -181 172 -375 364 -267 264 -352 354 -352 372 0 35 714 740
750 741 18 0 51 -27 126 -101 118 -118 109 -115 327 -104 l143 7 -286 284
c-286 284 -317 313 -334 314 -4 0 -72 -62 -149 -137z"/>
</g>
</svg>
